<svg xmlns="http://www.w3.org/2000/svg"><symbol id="brachiosaurus" viewBox="0 0 256 256"><path d="M60.1 166.7a29.7 29.7 0 0 0-7.5.9h-.1c0 .3.3.6.8.9a16 16 0 0 0 1.9 1.1l2.6.9 2.8.9 2.3.5a5 5 0 0 0 1.5.2h2.1a10.3 10.3 0 0 0 2.4-.5 9.7 9.7 0 0 0 2.4-.8 4.4 4.4 0 0 0 1.6-1.4 28.7 28.7 0 0 0-6.2-2.2 29.6 29.6 0 0 0-6.6-.5z"/><path d="M127.6 4a124.5 124.5 0 1 0 124.5 124.5A124.5 124.5 0 0 0 127.6 4zm81.2 68.7v.3a7.8 7.8 0 0 1-.1 1.3l-.3 2.1-.3 2.1c-.2.6-.2 1-.3 1.3a15 15 0 0 0-.9 1.8l-.6 1.9-.6 2a8.9 8.9 0 0 1-.7 1.9 26.9 26.9 0 0 1-1.6 2.9c-.6 1-1.1 2-1.6 3l-19.5 27.2-.2.5-.3.3-.3.3a1.1 1.1 0 0 0-.4.5l-1.6 2.2a34 34 0 0 0-2.1 2.8l-2.1 3.2a20.7 20.7 0 0 0-1.9 3.2 15.3 15.3 0 0 0-1.4 2.9 7.4 7.4 0 0 0-.5 2.2c0 .3-.2.6-.2.8s.2.4.2.6a.3.3 0 0 0-.3.3c0 .3.1.4.3.4v10a2.2 2.2 0 0 1-.3 1l-.3 1.1a6.7 6.7 0 0 0-.6 1.2c-.1.4-.5.8-.5 1.1v1.6c0 .1.2.2 0 .4l-.4.8c-.1.3-.5.5-.7.8a1.4 1.4 0 0 1-.5.4v.4c0 .1.7.2.8.4s.8.3.8.4v1.4a2.1 2.1 0 0 1 0 .8v.6a20.2 20.2 0 0 1-.6 3.4 34 34 0 0 1-.7 3.4c-.2 1.2-.5 2.3-.7 3.5s-.3 2.3-.3 3.4.1 4.2.3 6.2a37.5 37.5 0 0 0 1.1 6 27.8 27.8 0 0 0 2.1 5.7 20.2 20.2 0 0 0 3.3 5.1l-1.2.8-1.7.7-1.7.4h-1.8l-1-.3-1.2-.2-1-.2-.7-.2-.7-.2c-.3-.2-.5-.3-.6-.5a1.6 1.6 0 0 1-.4-.7 26.1 26.1 0 0 0 .2-4l-.3-4.2c-.2-1.4-.3-2.8-.5-4.2s-.4-2.7-.5-4a.8.8 0 0 1-.2-.6 1.6 1.6 0 0 0-.3-.6c.1-1 .1-2.2.1-3.5a27.1 27.1 0 0 0-.1-4 26.3 26.3 0 0 0-.6-3.9 12 12 0 0 0-1.3-3.3 2.8 2.8 0 0 0-1.5 1.8 19.7 19.7 0 0 0-.7 2.6c-.3 1-.2 1.9-.5 2.8s-.9 1.7-.9 2.3v7.4c0 2.8-.2 5.5-.1 8.2a73.6 73.6 0 0 0 .6 8 .7.7 0 0 0 .4.3l.8.6.8.7a.9.9 0 0 1 .3.6c0 .2-.3.5-.8.8a7.5 7.5 0 0 1-1.8.8 10.4 10.4 0 0 1-2 .8l-1.2.4h-.2l-4.7-2.5c-.2-.1-.2-.4-.2-.5v-.5a29.9 29.9 0 0 1 0-3 13.6 13.6 0 0 0 .1-2.9 24.3 24.3 0 0 0-.3-3.8c-.1-1.2-.3-2.4-.5-3.6l-.6-3.7a23.4 23.4 0 0 1-.3-3.8c0-1.2.1-2.3.1-3.2a23.6 23.6 0 0 1 .4-2.8c.2-.9.3-1.8.5-2.7s.4-2 .7-3.1a2 2 0 0 0-.1-.7 2.6 2.6 0 0 1-.1-.7 5.5 5.5 0 0 0-1.8.2l-1.9.5-1.8.6-1.9.5-1.3.2h-2.1l-1-.2h-6.9a44.3 44.3 0 0 0-5.2-.2h-2.4a3.5 3.5 0 0 0-2.3.9 43.4 43.4 0 0 1 0 5.1c0 1.6-.1 3.3-.1 4.9l-.3 5.1c0 1.6-.1 3.3-.1 5v5c0 .6.6 1.1 1.1 1.7l1.4 1.6a17.4 17.4 0 0 1 1.1 1.8 2.6 2.6 0 0 1 .5 1.7v.4a10.7 10.7 0 0 1-4 .4c.1.4 0 .7-.2.8h-2.7a8.3 8.3 0 0 1-2.2-.3 3.8 3.8 0 0 1-1.7-.8 2.2 2.2 0 0 1-.8-1.8c0-.4.1-.9.1-1.3l.3-1.3a5.6 5.6 0 0 0 .4-1.2 6.6 6.6 0 0 0 .1-1.4 23.4 23.4 0 0 0-.3-3.8l-.6-3.5c-.3-1.1-.6-2.6-.8-3.7a19.5 19.5 0 0 1-.7-3.9h-.5c-.2 0-.3.7-.5.9a2.5 2.5 0 0 1-.4.7l-.3.5c-.4.7-1 1.5-1.5 2.2l-1.4 2.2a25.6 25.6 0 0 0-1.1 2.4 10.9 10.9 0 0 0-.4 2.6 4.1 4.1 0 0 0 .3 1.6l.7 1.5.8 1.2.3.5a.8.8 0 0 1-.4.7l-1 .5-1.3.3h-2.6l-1.6-.2a1.8 1.8 0 0 1-1.1-.4 1.9 1.9 0 0 1-.7-.8 10.3 10.3 0 0 1-.5-1.6c-.2-.5-.3-1.1-.5-1.6a4.1 4.1 0 0 1-.3-1.6 3.1 3.1 0 0 1 .4-1.5l.9-1.5 1.1-1.6a10 10 0 0 0 .8-1.4l2.4-5.8 2.4-5.7.4-.8.6-.7a4.3 4.3 0 0 0 .4-.7 2.4 2.4 0 0 0 .2-.8c0-.4-.2-.6-.4-.6h-1.2l-8.8 2.8a3.2 3.2 0 0 1-1.3.5l-1.7.4-1.6.5a1.4 1.4 0 0 0-.7 1.1 1.6 1.6 0 0 0 .3.9l.6.6.8.5.8.6-.4.5-1.3-.9-1.3-.8-1.5-.6-1.5-.2a15.7 15.7 0 0 0-3.7.5l-3.9 1.1-4 1.1a14.4 14.4 0 0 1-4.1.5 16.9 16.9 0 0 1-3.4-.4 32.6 32.6 0 0 1-4.8-1.1 36.2 36.2 0 0 1-5.3-1.7 27.8 27.8 0 0 1-4.9-2.2 15.2 15.2 0 0 1-3.6-2.6 4 4 0 0 1-1.4-2.9 4 4 0 0 1 1.1-3.2 5.3 5.3 0 0 1 2.7-1.6c1-.4 2.2-.1 3.4-.2s2.3.3 3.3.3h2.2a4 4 0 0 0 1.1 0h.6a2.2 2.2 0 0 1 1.2-.2 21.5 21.5 0 0 1 2.3.2 21.3 21.3 0 0 1 2.5.3l1.9.2 1.9.5 1.8.9a7.5 7.5 0 0 0 1.8.7 5.8 5.8 0 0 0 1.9.3 8.1 8.1 0 0 0 3.9-1 30 30 0 0 0 4.1-2.5c1.3-1 2.6-2 3.8-3.1l3.2-2.6 1.8-1.2 1.8-1.1 1.7-1.2a12.9 12.9 0 0 0 1.5-1.7 38.3 38.3 0 0 0 2.5-4.4 39.9 39.9 0 0 1 2.7-4.4 4.9 4.9 0 0 1 1.3-1.2l1.5-1 1.6-.9 1.6-.9a28.8 28.8 0 0 0 3.5-2.6l3.4-2.8 3.3-3 3.3-2.8a27.1 27.1 0 0 1 3.7-2.1l3.9-1.8 2.4-1.3 2.4-1.3 2.6-1.1a11.1 11.1 0 0 1 2.6-.7l21.9-3.2a10.4 10.4 0 0 0 3.4-1.1 14.6 14.6 0 0 0 3.3-2.2 27.9 27.9 0 0 0 3.2-2.8c1-1 1.9-2.1 2.8-3.2l2.6-3.1 2.3-2.8 7.6-8.8.3-.2.5-.6.5-.5.3-.3 2-3.2h.2l.4-.2.4-.3.2-.2.4-.4.3-.3 1.3-1.7 1.3-2a21.4 21.4 0 0 0 1.3-1.9 9.5 9.5 0 0 0 .9-1.7 8.2 8.2 0 0 0 .9-1.9 17.2 17.2 0 0 1 .7-2.1c.2-.7.4-1.4.7-2.2s1-1.4 1-2.1v-6a4.8 4.8 0 0 0-1.1-3 10.7 10.7 0 0 0-2.6-2.6 20.2 20.2 0 0 0-3.2-1.8 10.4 10.4 0 0 0-3.2-.6 26.2 26.2 0 0 0-5.7.6 12.6 12.6 0 0 0-5 2.6l-1.4 1.4-1.6 1.9-1.7 1.9a15.3 15.3 0 0 1-1.8 1.8 10.2 10.2 0 0 1-1.8 1.3 3 3 0 0 1-1.7.5 1.3 1.3 0 0 1-1.2-.5 1.4 1.4 0 0 1-.5-1.1v-.4a2 2 0 0 0 .1-.5 6.4 6.4 0 0 0 .2-.7c0-.3.1-.5.1-.8a.8.8 0 0 0 .1-.4 8.8 8.8 0 0 0-.2-1.7l-.6-1.3a6.7 6.7 0 0 1-.6-1.2 2.2 2.2 0 0 1-.2-1.2l.8-.2a4.3 4.3 0 0 0 .4-.7 4.3 4.3 0 0 0 .4-.7l.8-.6h2.8a1 1 0 0 0 .9-.4l.7-.6a.1.1 0 0 1 .2 0h.2a.5.5 0 0 1 .2.4c.1.2.2.3.2.4s.2-.3.4-.4l.6-.3 1.1-.7 1.3-.8 1.4-.7 1-.7.6-.4 2-1.2a6.4 6.4 0 0 1 1.8-.6 5.8 5.8 0 0 1 1.9-.2h6.3a3.4 3.4 0 0 0 1.4.5 4 4 0 0 0 1.5.3l1.5.4 1.6.4a15.5 15.5 0 0 1 4.4 3 18.1 18.1 0 0 1 3.2 4.1 16.3 16.3 0 0 1 1.6 5 18.7 18.7 0 0 1 .5 5.3V73z"/></symbol><symbol id="micropachycephalosaurus" viewBox="0 0 256 256"><path d="M132.1 151.1c-.3 0-.4.2-.4.6h-.1a.5.5 0 0 0-.5.5c0 .4.2.6.5.6s.4-.2.4-.6h.1a.5.5 0 0 0 .5-.5c0-.4-.2-.6-.5-.6zm1.4-.7a1.9 1.9 0 0 0-.8.7h.2a2 2 0 0 0 1.1-.3 2.2 2.2 0 0 0 .9-.7h-.3a1.5 1.5 0 0 0-1.1.3zm3-2.6c-.3 0-.4.2-.4.6h-.1a.5.5 0 0 0-.5.5h-.1c-.3 0-.5.2-.5.6s.2.6.5.6.5-.2.5-.6h.1c.3 0 .4-.2.4-.6h.1c.3 0 .5-.1.5-.5s-.2-.6-.5-.6zm22.7-5.8a8.7 8.7 0 0 1-1.2 1.4 2 2 0 0 0 .8 1.1h1.1a2.3 2.3 0 0 0 1.4-.4 5.8 5.8 0 0 0 1-1.2l.8-1.5c.2-.5.3-1.1.4-1.1h-3.3c-.2.1-.5 1.1-1 1.7z"/><path d="M127.6 4a124.5 124.5 0 1 0 124.5 124.5A124.5 124.5 0 0 0 127.6 4zM221 77.8a4.2 4.2 0 0 1-1.5.4h-3.7a27.5 27.5 0 0 0-5.1 1.2 12.7 12.7 0 0 0-3.5 1.5 8.8 8.8 0 0 0-2.5 2.2A13.1 13.1 0 0 0 203 86a30.1 30.1 0 0 0-1.5 3.8c-.4 1.4-1 3.1-1.6 4.9l-1.2 3.4a19.8 19.8 0 0 1-1.2 3.1c-.4 1-.9 2-1.4 3.1l-1.7 3.1a30.7 30.7 0 0 1-2.6 4l-2.9 3.6-3.1 3.5c-1 1.2-2 2.4-3 3.8a9.4 9.4 0 0 0-1.4 2.6l-.9 2.5a7.4 7.4 0 0 1-1.3 2.1 5.7 5.7 0 0 1-2.5 1.6l-1.3.5-2 .7-1.9.6-1.4.4a3 3 0 0 1 .2 2 2 2 0 0 1-.9.9l-1.1.6a1.3 1.3 0 0 0-.9.9l-2.2 6.6a2.7 2.7 0 0 1-1.1 1.5 4.5 4.5 0 0 1-1.7.8 12.3 12.3 0 0 1-2 .2 10.3 10.3 0 0 1-1.8-.1h-1.9c-.3-.1-.4-.3-.4-.8a.6.6 0 0 1 .1-.4l.2-.2.3-.3v-.6l-3.3 1.6-3.3 2.1-3.3 2.1-3.3 1.9-.8.5-1.2.5a3.9 3.9 0 0 0-1 .8 1.8 1.8 0 0 0-.4 1 .4.4 0 0 0 .1.3v.3l1.7 1.5 1.9 1.7 2 1.6a11.3 11.3 0 0 0 2.1 1.2 7.5 7.5 0 0 0 1.8.7l1.9.5 1.8.7a8 8 0 0 1 1.6.8l1.4 1.4 1 1.5 1.2 1.4a4.4 4.4 0 0 0 1.4 1.3l1.6.6 2.1.6a5.9 5.9 0 0 1 1.7 1 2.1 2.1 0 0 1 .8 1.7v.5l-5.6 1.1-1 .4-1.2.2h-.6l-1.1-.6-1.7-1-1.7-1-1-.8-.2-.2-.3-.5-.3-.5-.3-.4-2.2-4.4-1.1-.5-1.8-.7-2.1-.9-2.1-1-1.7-.8-1.1-.6-2.7-1.5a13.3 13.3 0 0 1-2.6-2.1 16.4 16.4 0 0 1-2-2.6 8.7 8.7 0 0 1-1-3.1l-.6.2-.5.3-.9.7-1.7 1.1-2 1.4-2.1 1.3-1.7 1.1-1 .5-5.8 3.5a26.1 26.1 0 0 0-4.5 3.3 17 17 0 0 0-3.5 4.4c-.9 1.7-.7 3.8-2.4 6.5v.2c0 .1.1.2 0 .4v.9a10.4 10.4 0 0 0 1.2 4.4 7.4 7.4 0 0 0 2.1 2.5 10.1 10.1 0 0 0 2.5 1.4l2.6.9a4.4 4.4 0 0 1 1.9 1 5.1 5.1 0 0 1 .8 1.9h-13.1l-.2-.4-.3-.2h-.5l-.6-.3a2.9 2.9 0 0 1-1.2-1.5 8 8 0 0 1-.5-2.1 16.4 16.4 0 0 1 .2-2.3c0-.8.3-1.4.3-2v-1.5a6.6 6.6 0 0 1 .2-1.7l.6-2.6c.3-1 .5-2 .8-3.1s.5-2.1.7-3.1.5-1.9.7-2.6.3-1.4.4-1.7a9.3 9.3 0 0 1 .7-2 10.7 10.7 0 0 1 .9-1.9 12.4 12.4 0 0 0 4.4-2.5 24.2 24.2 0 0 0 3.2-3.2l2.9-3.4a16 16 0 0 1 3.3-3l1.4-.7 2.1-.8 2.2-.9a10.3 10.3 0 0 0 2.1-1.1 7.5 7.5 0 0 0 1.6-1.3 2.4 2.4 0 0 0 .6-1.5v-1.3a2.3 2.3 0 0 0-.6-1.2l-.8-.3-1.2-.5-1.1-.6-.8-.3a12.8 12.8 0 0 1-2-1.2l-2.6-1.8a25.6 25.6 0 0 0-2.5-1.6 3.5 3.5 0 0 0-1.7-.5h-7.7c-5.8 0-11.6-.1-17.3.1s-11.4.2-17.3.2c-4.3 0-8.5-.2-12.6-.4a95.3 95.3 0 0 1-12.1-1.3 81.3 81.3 0 0 1-11.8-2.9 71.8 71.8 0 0 1-11.6-4.9l-1.4-.7-1.5-1-1.3-1.3a3 3 0 0 1-.5-1.5 5.9 5.9 0 0 1 2.1.4l2.3.9 2.2.9 1.4.6 4.6 1.7 5 1.4 5 1 4.7.3h26l2.5-.4 3.3-.5 3.6-.6 3.4-.6 2.6-.5 6.7-1.3 7.2-1.6a73.6 73.6 0 0 0 7.1-2.1 55.1 55.1 0 0 0 6.5-2.7l3.8-1.8c1.2-.5 2.4-1.1 3.7-1.5a25.5 25.5 0 0 1 3.9-1.3 24.7 24.7 0 0 1 4.1-.9h1l1.7-.2h1.7l1.1-.2 1.8-.3 3.3-.7 4-.9 3.9-.9c1.3-.3 2.4-.9 3.3-1.1s1.5-.7 1.8-.7h6.5c2.6 0 5.2.5 7.7.7s5.1.5 7.7.5a11.1 11.1 0 0 0 5-1.2 19.9 19.9 0 0 0 4.4-3.5 30.9 30.9 0 0 0 3.8-4.8c1.2-1.9 2.2-3.7 3.2-5.6s1.8-3.7 2.5-5.4 1.3-3.4 1.7-4.8l1.1-3.3c.3-1.1.7-2.2 1-3.1a10.3 10.3 0 0 1 1.2-2.6 6.1 6.1 0 0 1 1.7-1.9 7.6 7.6 0 0 1 2.6-1.6 12 12 0 0 1 3.7-.8h3c.7 1.7 1.7.9 2.9 1.3a36.8 36.8 0 0 1 3.5 1.5 16 16 0 0 1 2.9 1.8 2.7 2.7 0 0 1 1.2 2.1 2 2 0 0 1-.4 1.4 2.8 2.8 0 0 1-1.1.5z"/></symbol><symbol id="velociraptor" viewBox="0 0 256 256"><path d="M127.6 4a124.5 124.5 0 1 0 124.5 124.5A124.4 124.4 0 0 0 127.6 4zm107.7 113.6a28 28 0 0 1-4.1 0h-3.1c-3 0-6-.1-9-.4l-8.9-.9-8.9-1c-3-.3-6-.4-9-.4a141.2 141.2 0 0 0-15.9.9 71.6 71.6 0 0 0-15.5 3.7L131 130.2c-.5.1-.9.7-1.2 1.5a17.3 17.3 0 0 0-.8 2.7l-.6 2.8a8.5 8.5 0 0 1-.6 1.9 3.2 3.2 0 0 0 1.3 1.3l2.4 1.1 2.8 1.2a11.5 11.5 0 0 1 2.7 1.4 6.3 6.3 0 0 1 2.1 1.8 4.1 4.1 0 0 1 .8 2.4 1.7 1.7 0 0 1-.5 1.2l-1.2.9-1.5.7-1.6.8a2.9 2.9 0 0 0-1.2 1 2.5 2.5 0 0 0-.5 1.5 3.5 3.5 0 0 0 .8 2.4 7.7 7.7 0 0 0 1.9 1.6l2.3 1.3a6.8 6.8 0 0 1 2.1 1.7 16.1 16.1 0 0 1 2 3.3 22.9 22.9 0 0 1 1.2 3.7c.3 1.2.6 2.4.8 3.7s.1 2.6.2 3.9l1.3 1.3v7h.9l1 .2.9.2.6.2v.8a3.8 3.8 0 0 1-.1 1 2.7 2.7 0 0 1-.3 1.2 7 7 0 0 1-.6.9 1 1 0 0 1-.9.3h-5.1c-.2 0-.5-.5-.9-.8l-1.5-.8-1.5-.8c-.5-.3-.9-.8-1.2-.8h-6a4.6 4.6 0 0 1 .6-2.9 4.5 4.5 0 0 1 1.6-1.5 5.8 5.8 0 0 1 2.1-.7l2.1-.3 1.6-.6a1.6 1.6 0 0 0 .6-1.4v-.6l-.8-1.7c-.4-.8-.8-1.6-1.3-2.4l-1.5-2.4a7.1 7.1 0 0 0-1.5-1.8l-1.3-.8-1.8-.9-1.7-1c-.5-.4-.9-.7-1-1.1s-.6-1.8-.9-2.9a28.1 28.1 0 0 0-1-3.1 9.8 9.8 0 0 0-1.7-2.6 4.3 4.3 0 0 0-2.8-1 24.7 24.7 0 0 0-6 .8 29.6 29.6 0 0 0-5.6 2.2 23.2 23.2 0 0 0-4.8 3.4 21.1 21.1 0 0 0-3.9 4.5l-.3.2h-.3c-.1-.1-.1-.2-.2-.4s-.1-.3-.2-.6-.1-.4-.1-.6-.1-.3-.2-.3h-.3a1.4 1.4 0 0 0-1 .5l-.9 1.1a5.7 5.7 0 0 1-.8 1 2.1 2.1 0 0 1-.8 1 2.9 2.9 0 0 1-.6-1.6 7.6 7.6 0 0 1-.1-1.6 8.6 8.6 0 0 1 .4-2.8 15.2 15.2 0 0 1 .9-2.8 18.3 18.3 0 0 0 .8-2.5 14.1 14.1 0 0 0 .4-2.7h-4.7c0-1.6.2-1.8.6-2.3a6.1 6.1 0 0 1 1.6-1.6 10.2 10.2 0 0 1 2.1-.9l2-.2a15.1 15.1 0 0 1 3 .2l2.9.4 2.8.5 2.9.2h2.2a2.3 2.3 0 0 0-1.6-1.3 10.1 10.1 0 0 0-2.5-.5l-2.7-.2c-.8 0-1.5.2-2.1-.2l-3.8-2.1h-.3a10.7 10.7 0 0 0-3.1 0 15.8 15.8 0 0 1-3.1.1 7.3 7.3 0 0 1-2.9-.7l-2.6-1.4-2.6-1.3a4.8 4.8 0 0 0-2.8-.6v5.9l1.6-.2 1-.3.8-.5a3.5 3.5 0 0 1 .9-.6l.6-.2v2.7l1.9-.6c0 .1.2.2.3.5s.1.3.1.4a5.2 5.2 0 0 1-1.3 3.8 18.2 18.2 0 0 1-3.2 2.9 18.8 18.8 0 0 0-4.5-1.2l-4.7-.7v-7.6l-1.7.5-2 1a11.8 11.8 0 0 0-1.9 1.1c-.4.4-.9.8-.9 1.2v6.7a16.5 16.5 0 0 0 2.9-.2l1.8-.6 1.2-.6 1.2-.3h.4l.2.7.5 1.2c.1.5.3.9.4 1.3a5.1 5.1 0 0 1 .2.9 7.2 7.2 0 0 1-.4 1.9 17.4 17.4 0 0 1-1.1 1.8 6.4 6.4 0 0 1-1.5 1.3 4.1 4.1 0 0 1-1.8.5h-1l-2.9-.5a19.1 19.1 0 0 1-3.6-.7 13.3 13.3 0 0 1-3.2-1.2 2.5 2.5 0 0 1-1.4-2v-11.5l.9-.8 1.8-1.6 2.3-2.1a18.8 18.8 0 0 0 2.4-2.5 12.8 12.8 0 0 0 1.7-2.6 5.2 5.2 0 0 0 .8-2.5 3.7 3.7 0 0 0-1.2-2.7 13.5 13.5 0 0 0-2.7-2 22.2 22.2 0 0 0-3.2-1.4l-2.5-.9-1.3-8.9a13.8 13.8 0 0 0-.6-2.6 8.1 8.1 0 0 0-1.1-2.7 5.1 5.1 0 0 0-1.7-2.1 3.9 3.9 0 0 0-2.6-.9 13 13 0 0 0-3.6.5 20.1 20.1 0 0 0-3.1 1.4l-1.6 1.1-2.5 1.4-2.9 1.7-2.9 1.7-2.5 1.7c-.7.4-1.3 1.1-1.6 1.1h-1l-1.7-.3a13.8 13.8 0 0 1-2-.3 4.7 4.7 0 0 1-1.4-.8c-.4-.3-.3-.8-.3-1.3v-1.9c0-.5-.2-.9 0-.9h1.6a.5.5 0 0 1 0-.4c0-.3.1-.5.1-.8a2.9 2.9 0 0 0 .2-.9c.1-.2.1-.4 0-.4a2.4 2.4 0 0 0-.8-.9l-.8-.4-.7-.7a1.7 1.7 0 0 1-.3-1.2 2.7 2.7 0 0 1 .3-1.2 3 3 0 0 1 .6-1.1c.3-.4.3-.6.6-.9l.8-.3v.8a3.5 3.5 0 0 0 .6 1.4 1 1 0 0 0 1.1.7 1.5 1.5 0 0 0 1.1-.4 5.2 5.2 0 0 0 1-1.1c.2-.5.4-1.2.6-1.6s.2.2.2-1.4H23.4a2.1 2.1 0 0 1-.9-.5 5.3 5.3 0 0 1-1-.6l-.9-.8a1.3 1.3 0 0 1-.4-1 4.3 4.3 0 0 1 1.1-3.1 6.4 6.4 0 0 1 2.5-1.8l3.1-1a13.6 13.6 0 0 0 2.8-.8l2.2-.9 3.3-1.5 3.3-1.6a8.8 8.8 0 0 1 2.1-1h13.3a7 7 0 0 1 3.8 1 11.8 11.8 0 0 1 3.1 2.4 19.9 19.9 0 0 1 2.4 3.3l2.3 3.2a18.6 18.6 0 0 0 2.2 2.5 3.4 3.4 0 0 0 2.4 1c.4 0 .7-.1.8-.4a.8.8 0 0 1 .8-.4 4 4 0 0 1 1.5.3l1.5.7 1.5.7a4 4 0 0 0 1.5.3l4.1-.2 4-.4 4-.5 4-.2a55.8 55.8 0 0 1 7.2.4 32.2 32.2 0 0 1 7.1 1.5c1.6.6 3.2 1.2 4.9 2l5 2.1a50.8 50.8 0 0 0 5.1 1.7 18.8 18.8 0 0 0 5.3.7h2.6l12.6-2.7c4.2-.8 8.3-1.6 12.5-2.2s8.4-1.1 12.7-1.5 8.5-.6 12.8-.6h8.7a48.4 48.4 0 0 1 4.9.9l35.7 7.1h11.4c-.7 0-1.8 1-3 1.4a26.1 26.1 0 0 1-4 .2z"/></symbol></svg>